<?xml version="1.0" encoding="utf-8"?>
<!-- Generator: Adobe Illustrator 16.2.1, SVG Export Plug-In . SVG Version: 6.00 Build 0)  -->
<!DOCTYPE svg PUBLIC "-//W3C//DTD SVG 1.1//EN" "http://www.w3.org/Graphics/SVG/1.1/DTD/svg11.dtd">
<svg version="1.1" id="Layer_1" xmlns="http://www.w3.org/2000/svg" xmlns:xlink="http://www.w3.org/1999/xlink" x="0px" y="0px"
	 width="100px" height="33px" viewBox="0 42.5 100 33" enable-background="new 0 42.5 100 33" xml:space="preserve">
<g id="Captions" display="none">
	<rect x="-330" display="inline" width="185" height="99"/>
	<rect x="-138" y="-36" display="inline" width="100" height="30"/>
	<text transform="matrix(1 0 0 1 -72 -19.5)" display="inline" font-family="'Helvetica'" font-size="2.4">http://thenounproject.com</text>
	<text transform="matrix(1 0 0 1 -130.834 -24.5)" display="inline" font-family="'Helvetica-Bold'" font-size="6.1578">The Noun Project</text>
	<text transform="matrix(1 0 0 1 -129.7139 -19.7002)" display="inline" font-family="'Helvetica-Bold'" font-size="4">Icon Template</text>
	<text transform="matrix(1 0 0 1 -316.5 10.5)" display="inline" font-family="'Helvetica-Bold'" font-size="6.1578">Reminders</text>
	<line display="inline" fill="none" stroke="#FFFFFF" stroke-miterlimit="10" x1="-130" y1="-14.5" x2="-120" y2="-14.5"/>
	<line display="inline" fill="none" stroke="#FFFFFF" stroke-miterlimit="10" x1="-317" y1="16.5" x2="-300" y2="16.5"/>
	<g display="inline">
		<g>
			<g>
				<rect x="-308.802" y="31.318" width="8.721" height="8.642"/>
				<path d="M-302.455,42.312h4.747v-4.703h-4.747V42.312z M-297.266,42.749h-5.63V37.17h5.63V42.749L-297.266,42.749z
					 M-304.221,44.062h8.279v-8.203h-8.279V44.062L-304.221,44.062z M-295.5,44.5h-9.163v-9.079h9.163V44.5L-295.5,44.5z"/>
				<polygon points="-304.149,44.133 -304.292,43.991 -296.013,35.787 -295.871,35.929 				"/>
			</g>
		</g>
	</g>
	<rect x="-317" y="58" display="inline" fill="none" width="35" height="32.5"/>
	<text transform="matrix(1 0 0 1 -317 60.1572)" display="inline" font-family="'Helvetica-Bold'" font-size="3">Strokes</text>
	<text transform="matrix(1 0 0 1 -317 65.1572)" display="inline" font-family="'Helvetica'" font-size="2.4">Try to keep strokes at 4px</text>
	<text transform="matrix(1 0 0 1 -317 70.1572)" display="inline" font-family="'Helvetica'" font-size="2.4">Minimum stroke weight is 2px</text>
	<text transform="matrix(1 0 0 1 -317 74.6572)" display="inline" font-family="'Helvetica'" font-size="2.4">For thicker strokes use even </text>
	<text transform="matrix(1 0 0 1 -317 77.6572)" display="inline" font-family="'Helvetica'" font-size="2.4">numbers: 6px, 8px etc.</text>
	<text transform="matrix(1 0 0 1 -317 82.1572)" display="inline" font-family="'Helvetica-Bold'" font-size="2.4">Remember to expand strokes </text>
	<text transform="matrix(1 0 0 1 -317 85.1572)" display="inline" font-family="'Helvetica-Bold'" font-size="2.4">before saving as an SVG </text>
	<rect x="-274.5" y="58" display="inline" fill="none" width="35" height="32.5"/>
	<text transform="matrix(1 0 0 1 -274.5 60.1572)" display="inline" font-family="'Helvetica-Bold'" font-size="3">Size</text>
	<text transform="matrix(1 0 0 1 -274.5 65.1572)" display="inline" font-family="'Helvetica'" font-size="2.4">Cannot be wider or taller than </text>
	<text transform="matrix(1 0 0 1 -274.5 68.6572)" display="inline" font-family="'Helvetica'" font-size="2.4">100px (artboard size)</text>
	<text transform="matrix(1 0 0 1 -274.5 73.6572)" display="inline" font-family="'Helvetica'" font-size="2.4">Scale your icon to fill as much of </text>
	<text transform="matrix(1 0 0 1 -274.5 76.6572)" display="inline" font-family="'Helvetica'" font-size="2.4">the artboard as possible</text>
	<rect x="-232" y="58" display="inline" fill="none" width="35" height="32.5"/>
	<text transform="matrix(1 0 0 1 -232 60.1572)" display="inline" font-family="'Helvetica-Bold'" font-size="3">Ungroup</text>
	<text transform="matrix(1 0 0 1 -232 65.1572)" display="inline" font-family="'Helvetica'" font-size="2.4">If your design has more than one </text>
	<text transform="matrix(1 0 0 1 -232 68.1572)" display="inline" font-family="'Helvetica'" font-size="2.4">shape, make sure to ungroup</text>
	<rect x="-188" y="58" display="inline" fill="none" width="35" height="32.5"/>
	<text transform="matrix(1 0 0 1 -188 60.1572)" display="inline" font-family="'Helvetica-Bold'" font-size="3">Save as</text>
	<text transform="matrix(1 0 0 1 -188 65.1572)" display="inline" font-family="'Helvetica'" font-size="2.4">Save as .SVG and make sure </text>
	<text transform="matrix(1 0 0 1 -188 68.1572)" display="inline" font-family="'Helvetica'" font-size="2.4">“Use Artboards” is checked</text>
	<text transform="matrix(1.0074 0 0 1 -263.542 30.5938)" display="inline" font-family="'Helvetica'" font-size="2.5731">100px</text>
	<text transform="matrix(1.0074 0 0 1 -179 39)" display="inline" font-family="'Helvetica-Bold'" font-size="5.1462">.SVG</text>
	<rect x="-264.514" y="34.815" display="inline" width="10.261" height="10.185"/>
	<rect x="-264.477" y="31.766" display="inline" width="0.522" height="2.337"/>
	<rect x="-254.812" y="31.766" display="inline" width="0.523" height="2.337"/>
	<rect x="-265" y="32.337" display="inline" width="11.233" height="0.572"/>
	<g display="inline">
		<rect x="-221.805" y="33.844" width="10.305" height="10.156"/>
		<rect x="-214.809" y="28.707" width="3.308" height="3.261"/>
	</g>
	<rect x="-316.5" y="22.5" display="inline" stroke="#FFFFFF" stroke-miterlimit="10" width="30" height="30"/>
	<rect x="-274.5" y="22.5" display="inline" stroke="#FFFFFF" stroke-miterlimit="10" width="30" height="30"/>
	<rect x="-231.5" y="22.5" display="inline" stroke="#FFFFFF" stroke-miterlimit="10" width="30" height="30"/>
	<rect x="-187.5" y="22.5" display="inline" stroke="#FFFFFF" stroke-miterlimit="10" width="30" height="30"/>
</g>
<path d="M62.127,58.945c0.148,0.24,0.407,0.393,0.641,0.568c0.205,0.155,0.312,0.295,0.166,0.618
	c-0.257,0.578-0.511,1.149-0.896,1.652c-0.401,0.526-0.931,0.885-1.575,1.047c-0.127,0.032-0.271,0.011-0.406,0.005
	c-0.523-0.021-1.033,0.1-1.548,0.163c-0.594,0.075-1.185,0.171-1.776,0.253c-0.448,0.062-0.898,0.13-1.346,0.214
	c-0.305,0.058-0.621,0.078-0.932,0.128c-0.623,0.1-1.252,0.164-1.865,0.303c-0.553,0.125-1.111,0.222-1.666,0.332
	c-0.728,0.146-1.451,0.307-2.186,0.424c-0.656,0.104-1.301,0.279-1.956,0.397c-0.729,0.134-1.457,0.284-2.184,0.429
	c-0.379,0.076-0.728-0.02-1.081-0.041c-0.327-0.021-1.732-0.14-2.103-0.148c-1.188-0.029-2.322-0.303-3.411-0.764
	c-0.347-0.146-0.715-0.231-1.056-0.396c-0.144-0.068-29.736,4.131-30.218,4.243c-0.082,0.021-0.202,0.067-0.293-0.049
	c-0.423-0.539-1.3-1.664-1.311-1.694c0,0-0.076-0.023-0.016-0.043c0.433-0.143,29.657-3.854,30.178-3.943
	c0.253-0.041,0.534,0.015,0.76-0.164c0-0.054-0.292-0.289-0.292-0.289c-2.382-1.189-4.765-2.377-7.146-3.562
	c-2.8-1.393-5.602-2.779-8.4-4.173c-0.207-0.103-0.447-0.151-0.609-0.323C19.475,54,19.509,54.02,19.509,54.02
	c0.243-0.233,0.591-0.213,0.875-0.352c0.484-0.236,0.858,0.104,1.251,0.27c1.389,0.586,2.763,1.203,4.145,1.802
	c1.292,0.559,2.593,1.096,3.879,1.667c1.186,0.527,2.477,1.021,3.656,1.564C34.145,59.354,36,60.086,36,60.115V60.08v-0.053
	c0-0.606,0.699-1.269,1.1-1.898c0.105-0.165,0.173-0.285,0.366-0.318c1.043-0.176,2.028-0.516,3.097-0.598
	c0.594-0.046,1.16-0.052,1.74,0.072c0.747,0.16,1.246,0.58,1.416,1.343c0.027,0.114-0.055,0.67-0.055,0.67
	c-0.021-0.139,10.148-10.804,10.998-11.696c0.076-0.082,0.138-0.212,0.29-0.176c0.421,0.097,0.86,0.11,1.269,0.309
	c-0.236,0.383-8.024,9.195-9.167,10.519c-0.133,0.154-0.341,0.278-0.358,0.52c0,0-0.021,0.007,0.118,0.033
	c0.178,0.035,0.373,0.025,0.553-0.009c0.482-0.092,0.973-0.114,1.459-0.171c0.407-0.045,0.816-0.082,1.224-0.129
	c0.478-0.053,0.954-0.111,1.431-0.162c0.408-0.045,0.817-0.084,1.225-0.131c0.229-0.027,0.46-0.074,0.686-0.264
	c1.238-1.045,2.529-2.014,4.217-2.24c0.504-0.067,1-0.084,1.488,0.043c0.774,0.203,1.428,0.611,1.895,1.279
	c0.101,0.145,0.236,0.177,0.381,0.143c0.691-0.168,30.729-7.365,32.438-7.792c0.101-0.024,0.16,0.004,0.235,0.036
	c0,0,0.063-0.056-0.005,0.084c-0.277,0.565-0.661,1.064-1.021,1.574c-0.127,0.178-0.381,0.15-0.578,0.203
	C91.184,51.602,62.244,58.945,62.127,58.945z"/>
</svg>
